<?xml version="1.0" encoding="UTF-8"?>
<svg width="492px" height="237px" viewBox="0 0 492 237" version="1.1" xmlns="http://www.w3.org/2000/svg" xmlns:xlink="http://www.w3.org/1999/xlink">
    <!-- Generator: Sketch 52.2 (67145) - http://www.bohemiancoding.com/sketch -->
    <title>Big Logo</title>
    <desc>Created with Sketch.</desc>
    <g id="Page-1" stroke="none" stroke-width="1" fill="none" fill-rule="evenodd">
        <g id="Home-Splash" transform="translate(-53.000000, -122.000000)">
            <g id="Group-3" transform="translate(53.000000, 122.000000)">
                <path d="M81.1969112,56.7329737 L81.1969112,0 L106.772201,0 C109.436307,0 111.900568,0.559333584 114.165058,1.67801753 C116.429548,2.79670148 118.387637,4.26162277 120.039382,6.07282535 C121.691128,7.88402794 122.9832,9.93491774 123.915637,12.2255563 C124.848074,14.5161949 125.314286,16.833434 125.314286,19.1773432 C125.314286,20.9352751 125.10116,22.6265934 124.674903,24.2513486 C124.248647,25.8761039 123.635911,27.4076125 122.83668,28.8459204 C122.037448,30.2842284 121.065064,31.5760226 119.919498,32.7213419 C118.773932,33.8666612 117.48186,34.8388362 116.043243,35.6378962 L128.511197,56.7329737 L113.725483,56.7329737 L102.855985,38.434592 L94.3042471,38.434592 L94.3042471,56.7329737 L81.1969112,56.7329737 Z M94.3042471,27.0080917 L106.292664,27.0080917 C107.837846,27.0080917 109.169879,26.2756311 110.288803,24.8106878 C111.407728,23.3457445 111.967181,21.4679818 111.967181,19.1773432 C111.967181,16.833434 111.327806,14.9689887 110.049035,13.5839514 C108.770264,12.1989142 107.38495,11.5064059 105.89305,11.5064059 L94.3042471,11.5064059 L94.3042471,27.0080917 Z M150.17027,0 L161.998842,0 L182.698842,56.7329737 L169.271815,56.7329737 L164.876062,44.0279838 L147.213127,44.0279838 L142.897297,56.7329737 L129.47027,56.7329737 L150.17027,0 Z M162.718147,34.9986514 L156.084556,14.9423466 L149.29112,34.9986514 L162.718147,34.9986514 Z M188.293436,56.7329737 L188.293436,0 L212.510039,0 C215.227427,0 217.718328,0.559333584 219.982819,1.67801753 C222.247309,2.79670148 224.192077,4.26162277 225.817181,6.07282535 C227.442286,7.88402794 228.721038,9.93491774 229.653475,12.2255563 C230.585912,14.5161949 231.052124,16.833434 231.052124,19.1773432 C231.052124,21.6810644 230.612553,24.0782084 229.733398,26.3688469 C228.854243,28.6594855 227.628772,30.7103753 226.05695,32.5215779 C224.485127,34.3327805 222.58032,35.7710668 220.342471,36.8364801 C218.104622,37.9018934 215.627041,38.434592 212.909653,38.434592 L201.400772,38.434592 L201.400772,56.7329737 L188.293436,56.7329737 Z M201.400772,27.0080917 L212.110425,27.0080917 C213.655606,27.0080917 214.987639,26.3422184 216.106564,25.0104518 C217.225488,23.6786852 217.784942,21.7343351 217.784942,19.1773432 C217.784942,17.8455766 217.611778,16.7002745 217.265444,15.7414026 C216.91911,14.7825306 216.452899,13.9834826 215.866795,13.3442347 C215.280692,12.7049867 214.614676,12.2388754 213.868726,11.9458867 C213.122776,11.6528981 212.376838,11.5064059 211.630888,11.5064059 L201.400772,11.5064059 L201.400772,27.0080917 Z M238.085328,56.7329737 L238.085328,0 L251.192664,0 L251.192664,56.7329737 L238.085328,56.7329737 Z M262.062162,56.7329737 L262.062162,0 L283.241699,0 C287.930525,0 292.033187,0.745778112 295.549807,2.23735671 C299.066427,3.72893531 302.01022,5.75319018 304.381274,8.31018206 C306.752328,10.8671739 308.537253,13.8636039 309.7361,17.2995617 C310.934948,20.7355195 311.534363,24.3978228 311.534363,28.2865813 C311.534363,32.6015051 310.868346,36.5035227 309.536293,39.9927512 C308.20424,43.4819797 306.299433,46.4650921 303.821815,48.942178 C301.344196,51.4192639 298.360442,53.336979 294.870463,54.695381 C291.380484,56.0537829 287.504268,56.7329737 283.241699,56.7329737 L262.062162,56.7329737 Z M298.187259,28.2865813 C298.187259,25.78286 297.85425,23.5055733 297.188224,21.4546527 C296.522197,19.4037322 295.549813,17.6325091 294.271042,16.1409305 C292.992272,14.6493519 291.420473,13.5040498 289.555598,12.7049899 C287.690724,11.9059299 285.586112,11.5064059 283.241699,11.5064059 L275.169498,11.5064059 L275.169498,45.2265678 L283.241699,45.2265678 C285.639394,45.2265678 287.770647,44.8004088 289.635521,43.9480782 C291.500395,43.0957476 293.058874,41.9104931 294.311004,40.3922792 C295.563134,38.8740652 296.522197,37.0895248 297.188224,35.0386042 C297.85425,32.9876836 298.187259,30.7370318 298.187259,28.2865813 Z M81.1969112,146.62677 L81.1969112,89.8937964 L106.772201,89.8937964 C109.436307,89.8937964 111.900568,90.4531299 114.165058,91.5718139 C116.429548,92.6904978 118.387637,94.1554191 120.039382,95.9666217 C121.691128,97.7778243 122.9832,99.8287141 123.915637,102.119353 C124.848074,104.409991 125.314286,106.72723 125.314286,109.07114 C125.314286,110.829072 125.10116,112.52039 124.674903,114.145145 C124.248647,115.7699 123.635911,117.301409 122.83668,118.739717 C122.037448,120.178025 121.065064,121.469819 119.919498,122.615138 C118.773932,123.760458 117.48186,124.732633 116.043243,125.531693 L128.511197,146.62677 L113.725483,146.62677 L102.855985,128.328388 L94.3042471,128.328388 L94.3042471,146.62677 L81.1969112,146.62677 Z M94.3042471,116.901888 L106.292664,116.901888 C107.837846,116.901888 109.169879,116.169427 110.288803,114.704484 C111.407728,113.239541 111.967181,111.361778 111.967181,109.07114 C111.967181,106.72723 111.327806,104.862785 110.049035,103.477748 C108.770264,102.092711 107.38495,101.400202 105.89305,101.400202 L94.3042471,101.400202 L94.3042471,116.901888 Z M174.626641,135.120364 L174.626641,146.62677 L134.745174,146.62677 L134.745174,89.8937964 L173.907336,89.8937964 L173.907336,101.400202 L147.85251,101.400202 L147.85251,112.427175 L170.230888,112.427175 L170.230888,123.054619 L147.85251,123.054619 L147.85251,135.120364 L174.626641,135.120364 Z M216.666023,106.51416 C216.506177,106.301078 215.946723,105.901554 214.987645,105.315577 C214.028567,104.729599 212.829737,104.116996 211.39112,103.477748 C209.952502,102.8385 208.380704,102.279166 206.675676,101.79973 C204.970648,101.320294 203.265646,101.08058 201.560618,101.08058 C196.871791,101.08058 194.527413,102.652041 194.527413,105.79501 C194.527413,106.753882 194.780499,107.55293 195.28668,108.192178 C195.79286,108.831426 196.538798,109.404077 197.524517,109.910148 C198.510237,110.41622 199.749027,110.882331 201.240927,111.308496 C202.732826,111.734662 204.464469,112.21409 206.435907,112.746797 C209.153295,113.492586 211.604236,114.304952 213.788803,115.183918 C215.97337,116.062884 217.824896,117.154916 219.343436,118.460047 C220.861977,119.765178 222.034166,121.349957 222.860039,123.21443 C223.685911,125.078903 224.098842,127.316238 224.098842,129.9265 C224.098842,133.12274 223.499427,135.826186 222.300579,138.036918 C221.101731,140.247651 219.516612,142.032191 217.545174,143.390593 C215.573735,144.748995 213.309279,145.734488 210.751737,146.3471 C208.194196,146.959713 205.55677,147.266015 202.839382,147.266015 C200.76138,147.266015 198.630127,147.106205 196.44556,146.786581 C194.260993,146.466957 192.12974,146.000846 190.051737,145.388233 C187.973735,144.775621 185.962365,144.04316 184.017568,143.190829 C182.07277,142.338499 180.274526,141.353006 178.62278,140.234322 L184.37722,128.807822 C184.590349,129.074175 185.283006,129.580239 186.455212,130.326028 C187.627419,131.071818 189.079335,131.817596 190.811004,132.563385 C192.542673,133.309174 194.474121,133.975048 196.605405,134.561025 C198.73669,135.147002 200.894584,135.439987 203.079151,135.439987 C207.714695,135.439987 210.032432,134.028335 210.032432,131.20499 C210.032432,130.139577 209.686104,129.260624 208.993436,128.568105 C208.300769,127.875587 207.341705,127.249666 206.116216,126.690324 C204.890727,126.130982 203.438811,125.611601 201.760425,125.132165 C200.082038,124.652729 198.257153,124.12003 196.285714,123.534053 C193.67489,122.734993 191.410434,121.869357 189.492278,120.937121 C187.574122,120.004884 185.989002,118.926169 184.736873,117.700944 C183.484743,116.475719 182.55232,115.064067 181.939575,113.465947 C181.326831,111.867827 181.020463,110.003382 181.020463,107.872556 C181.020463,104.889398 181.579917,102.25254 182.698842,99.9619016 C183.817766,97.671263 185.336284,95.7402304 187.25444,94.1687458 C189.172596,92.5972612 191.397092,91.4120067 193.927992,90.6129467 C196.458893,89.8138868 199.136279,89.4143628 201.960232,89.4143628 C203.93167,89.4143628 205.876438,89.6008073 207.794595,89.973702 C209.712751,90.3465966 211.550956,90.8260254 213.309266,91.4120027 C215.067576,91.99798 216.705977,92.6638533 218.224517,93.4096426 C219.743058,94.1554319 221.141692,94.90121 222.420463,95.6469993 L216.666023,106.51416 Z M231.771429,146.62677 L231.771429,89.8937964 L255.988031,89.8937964 C258.705419,89.8937964 261.196321,90.4531299 263.460811,91.5718139 C265.725301,92.6904978 267.670069,94.1554191 269.295174,95.9666217 C270.920278,97.7778243 272.19903,99.8287141 273.131467,102.119353 C274.063904,104.409991 274.530116,106.72723 274.530116,109.07114 C274.530116,111.574861 274.090545,113.972005 273.21139,116.262643 C272.332235,118.553282 271.106765,120.604172 269.534942,122.415374 C267.96312,124.226577 266.058312,125.664863 263.820463,126.730276 C261.582614,127.79569 259.105033,128.328388 256.387645,128.328388 L244.878764,128.328388 L244.878764,146.62677 L231.771429,146.62677 Z M244.878764,116.901888 L255.588417,116.901888 C257.133598,116.901888 258.465631,116.236015 259.584556,114.904248 C260.70348,113.572482 261.262934,111.628131 261.262934,109.07114 C261.262934,107.739373 261.08977,106.594071 260.743436,105.635199 C260.397103,104.676327 259.930891,103.877279 259.344788,103.238031 C258.758684,102.598783 258.092668,102.132672 257.346718,101.839683 C256.600768,101.546694 255.85483,101.400202 255.10888,101.400202 L244.878764,101.400202 L244.878764,116.901888 Z M306.419305,147.106204 C302.210018,147.106204 298.373762,146.280521 294.910425,144.62913 C291.447087,142.97774 288.489974,140.806993 286.038996,138.116824 C283.588019,135.426655 281.683211,132.350321 280.324517,128.887728 C278.965823,125.425134 278.286486,121.856053 278.286486,118.180378 C278.286486,114.451431 278.992464,110.855715 280.40444,107.393122 C281.816416,103.930529 283.787825,100.880829 286.318726,98.2439312 C288.849627,95.6070333 291.846701,93.5028737 295.310039,91.9313891 C298.773376,90.3599045 302.55635,89.574174 306.659073,89.574174 C310.868361,89.574174 314.704616,90.3998569 318.167954,92.0512475 C321.631291,93.7026381 324.588405,95.8867025 327.039382,98.6035064 C329.49036,101.32031 331.381847,104.409962 332.7139,107.872556 C334.045953,111.335149 334.711969,114.85096 334.711969,118.420094 C334.711969,122.149041 334.005992,125.744757 332.594015,129.20735 C331.182039,132.669943 329.223951,135.719643 326.719691,138.356541 C324.215431,140.993439 321.231678,143.110916 317.76834,144.709036 C314.305002,146.307156 310.522028,147.106204 306.419305,147.106204 Z M291.633591,118.340189 C291.633591,120.524286 291.953279,122.641763 292.592664,124.692684 C293.23205,126.743604 294.177793,128.568097 295.429923,130.166217 C296.682053,131.764337 298.240531,133.042814 300.105405,134.001686 C301.97028,134.960558 304.101532,135.439987 306.499228,135.439987 C309.003487,135.439987 311.188022,134.933923 313.052896,133.92178 C314.91777,132.909638 316.462928,131.591208 317.688417,129.966453 C318.913906,128.341698 319.833009,126.503888 320.445753,124.452967 C321.058497,122.402046 321.364865,120.311204 321.364865,118.180378 C321.364865,115.99628 321.045177,113.878803 320.405792,111.827883 C319.766406,109.776962 318.807342,107.965787 317.528571,106.394302 C316.249801,104.822817 314.691322,103.570976 312.853089,102.638739 C311.014856,101.706502 308.896923,101.240391 306.499228,101.240391 C303.994968,101.240391 301.823754,101.733137 299.985521,102.718645 C298.147288,103.704152 296.60213,104.995946 295.35,106.594066 C294.09787,108.192186 293.165447,110.016679 292.552703,112.067599 C291.939958,114.11852 291.633591,116.209362 291.633591,118.340189 Z M355.411969,114.185098 L355.411969,146.62677 L342.304633,146.62677 L342.304633,89.8937964 L352.534749,89.8937964 L378.989189,123.21443 L378.989189,89.8937964 L392.096525,89.8937964 L392.096525,146.62677 L381.546718,146.62677 L355.411969,114.185098 Z M437.013127,106.51416 C436.853281,106.301078 436.293827,105.901554 435.334749,105.315577 C434.375671,104.729599 433.176841,104.116996 431.738224,103.477748 C430.299607,102.8385 428.727808,102.279166 427.02278,101.79973 C425.317752,101.320294 423.61275,101.08058 421.907722,101.08058 C417.218895,101.08058 414.874517,102.652041 414.874517,105.79501 C414.874517,106.753882 415.127604,107.55293 415.633784,108.192178 C416.139964,108.831426 416.885902,109.404077 417.871622,109.910148 C418.857341,110.41622 420.096132,110.882331 421.588031,111.308496 C423.07993,111.734662 424.811573,112.21409 426.783012,112.746797 C429.5004,113.492586 431.95134,114.304952 434.135907,115.183918 C436.320474,116.062884 438.172,117.154916 439.690541,118.460047 C441.209081,119.765178 442.38127,121.349957 443.207143,123.21443 C444.033016,125.078903 444.445946,127.316238 444.445946,129.9265 C444.445946,133.12274 443.846531,135.826186 442.647683,138.036918 C441.448836,140.247651 439.863716,142.032191 437.892278,143.390593 C435.92084,144.748995 433.656383,145.734488 431.098842,146.3471 C428.5413,146.959713 425.903875,147.266015 423.186486,147.266015 C421.108484,147.266015 418.977231,147.106205 416.792664,146.786581 C414.608097,146.466957 412.476844,146.000846 410.398842,145.388233 C408.320839,144.775621 406.309469,144.04316 404.364672,143.190829 C402.419874,142.338499 400.62163,141.353006 398.969884,140.234322 L404.724324,128.807822 C404.937453,129.074175 405.63011,129.580239 406.802317,130.326028 C407.974523,131.071818 409.426439,131.817596 411.158108,132.563385 C412.889777,133.309174 414.821225,133.975048 416.95251,134.561025 C419.083794,135.147002 421.241688,135.439987 423.426255,135.439987 C428.061799,135.439987 430.379537,134.028335 430.379537,131.20499 C430.379537,130.139577 430.033208,129.260624 429.340541,128.568105 C428.647873,127.875587 427.688809,127.249666 426.46332,126.690324 C425.237832,126.130982 423.785916,125.611601 422.107529,125.132165 C420.429142,124.652729 418.604257,124.12003 416.632819,123.534053 C414.021995,122.734993 411.757539,121.869357 409.839382,120.937121 C407.921226,120.004884 406.336107,118.926169 405.083977,117.700944 C403.831847,116.475719 402.899424,115.064067 402.28668,113.465947 C401.673935,111.867827 401.367568,110.003382 401.367568,107.872556 C401.367568,104.889398 401.927021,102.25254 403.045946,99.9619016 C404.16487,97.671263 405.683388,95.7402304 407.601544,94.1687458 C409.519701,92.5972612 411.744196,91.4120067 414.275097,90.6129467 C416.805997,89.8138868 419.483384,89.4143628 422.307336,89.4143628 C424.278774,89.4143628 426.223543,89.6008073 428.141699,89.973702 C430.059855,90.3465966 431.898061,90.8260254 433.656371,91.4120027 C435.414681,91.99798 437.053081,92.6638533 438.571622,93.4096426 C440.090162,94.1554319 441.488797,94.90121 442.767568,95.6469993 L437.013127,106.51416 Z M492,135.120364 L492,146.62677 L452.118533,146.62677 L452.118533,89.8937964 L491.280695,89.8937964 L491.280695,101.400202 L465.225869,101.400202 L465.225869,112.427175 L487.604247,112.427175 L487.604247,123.054619 L465.225869,123.054619 L465.225869,135.120364 L492,135.120364 Z M120.199228,230.927175 C115.883376,234.922474 110.901573,236.920094 105.253668,236.920094 C101.52392,236.920094 98.0073524,236.214269 94.703861,234.802596 C91.4003696,233.390923 88.5098579,231.406621 86.0322394,228.849629 C83.5546208,226.292637 81.5965323,223.216303 80.1579151,219.620533 C78.7192978,216.024763 78,212.069475 78,207.754552 C78,203.865793 78.7192978,200.190172 80.1579151,196.727579 C81.5965323,193.264986 83.5812615,190.255239 86.1121622,187.698247 C88.6430628,185.141255 91.6401371,183.117 95.1034749,181.625421 C98.5668127,180.133843 102.296505,179.388065 106.292664,179.388065 C111.567594,179.388065 116.176428,180.493414 120.119305,182.704147 C124.062182,184.91488 127.019295,187.937944 128.990734,191.773432 L119.240154,199.124747 C117.961384,196.567755 116.109858,194.583453 113.685521,193.17178 C111.261185,191.760108 108.63708,191.054282 105.813127,191.054282 C103.628561,191.054282 101.643831,191.493758 99.8588803,192.372724 C98.0739293,193.25169 96.5420913,194.476897 95.2633205,196.048382 C93.9845496,197.619866 92.9988452,199.444359 92.3061776,201.521915 C91.6135101,203.599471 91.2671815,205.836805 91.2671815,208.233985 C91.2671815,210.684436 91.6401507,212.948405 92.3861004,215.025961 C93.1320501,217.103517 94.1710358,218.901375 95.5030888,220.419589 C96.8351418,221.937803 98.4202611,223.123057 100.258494,223.975388 C102.096727,224.827718 104.134738,225.253877 106.372587,225.253877 C111.48767,225.253877 116.096505,222.883368 120.199228,218.142279 L120.199228,216.384356 L109.169884,216.384356 L109.169884,206.87559 L131.068726,206.87559 L131.068726,236.520566 L120.199228,236.520566 L120.199228,230.927175 Z M139.700386,236.520566 L139.700386,179.787593 L165.275676,179.787593 C167.939782,179.787593 170.404043,180.346926 172.668533,181.46561 C174.933023,182.584294 176.891111,184.049215 178.542857,185.860418 C180.194603,187.671621 181.486675,189.72251 182.419112,192.013149 C183.351549,194.303788 183.817761,196.621027 183.817761,198.964936 C183.817761,200.722868 183.604635,202.414186 183.178378,204.038941 C182.752121,205.663697 182.139386,207.195205 181.340154,208.633513 C180.540923,210.071821 179.568539,211.363615 178.422973,212.508935 C177.277407,213.654254 175.985335,214.626429 174.546718,215.425489 L187.014672,236.520566 L172.228958,236.520566 L161.359459,218.222185 L152.807722,218.222185 L152.807722,236.520566 L139.700386,236.520566 Z M152.807722,206.795684 L164.796139,206.795684 C166.34132,206.795684 167.673353,206.063224 168.792278,204.598281 C169.911203,203.133337 170.470656,201.255575 170.470656,198.964936 C170.470656,196.621027 169.831281,194.756581 168.55251,193.371544 C167.273739,191.986507 165.888424,191.293999 164.396525,191.293999 L152.807722,191.293999 L152.807722,206.795684 Z M218.104633,237 C213.895346,237 210.059091,236.174317 206.595753,234.522927 C203.132415,232.871536 200.175302,230.700789 197.724324,228.01062 C195.273347,225.320452 193.36854,222.244117 192.009846,218.781524 C190.651152,215.318931 189.971815,211.74985 189.971815,208.074174 C189.971815,204.345227 190.677792,200.749512 192.089768,197.286918 C193.501745,193.824325 195.473153,190.774625 198.004054,188.137728 C200.534955,185.50083 203.532029,183.39667 206.995367,181.825185 C210.458705,180.253701 214.241678,179.46797 218.344402,179.46797 C222.553689,179.46797 226.389944,180.293653 229.853282,181.945044 C233.31662,183.596434 236.273733,185.780499 238.72471,188.497303 C241.175688,191.214107 243.067175,194.303759 244.399228,197.766352 C245.731281,201.228945 246.397297,204.744756 246.397297,208.313891 C246.397297,212.042837 245.69132,215.638553 244.279344,219.101146 C242.867367,222.563739 240.909279,225.613439 238.405019,228.250337 C235.90076,230.887235 232.917006,233.004712 229.453668,234.602832 C225.99033,236.200952 222.207356,237 218.104633,237 Z M203.318919,208.233985 C203.318919,210.418082 203.638607,212.53556 204.277992,214.58648 C204.917378,216.637401 205.863121,218.461894 207.115251,220.060013 C208.367381,221.658133 209.925859,222.93661 211.790734,223.895482 C213.655608,224.854354 215.786861,225.333783 218.184556,225.333783 C220.688816,225.333783 222.87335,224.827719 224.738224,223.815577 C226.603098,222.803434 228.148256,221.485005 229.373745,219.860249 C230.599234,218.235494 231.518337,216.397684 232.131081,214.346763 C232.743825,212.295843 233.050193,210.205001 233.050193,208.074174 C233.050193,205.890077 232.730505,203.7726 232.09112,201.721679 C231.451734,199.670758 230.49267,197.859583 229.2139,196.288098 C227.935129,194.716614 226.37665,193.464772 224.538417,192.532535 C222.700184,191.600299 220.582251,191.134187 218.184556,191.134187 C215.680296,191.134187 213.509083,191.626934 211.670849,192.612441 C209.832616,193.597948 208.287458,194.889743 207.035328,196.487862 C205.783198,198.085982 204.850775,199.910475 204.238031,201.961396 C203.625287,204.012316 203.318919,206.103159 203.318919,208.233985 Z M278.366409,225.333783 C280.604258,225.333783 282.495745,224.867672 284.040927,223.935435 C285.586108,223.003198 286.838219,221.764674 287.797297,220.219825 C288.756375,218.674975 289.435712,216.903752 289.835328,214.906102 C290.234944,212.908453 290.434749,210.87088 290.434749,208.793324 L290.434749,179.787593 L303.542085,179.787593 L303.542085,208.793324 C303.542085,212.735353 303.049233,216.410974 302.063514,219.820297 C301.077794,223.229619 299.559277,226.212732 297.507915,228.769724 C295.456553,231.326715 292.845769,233.337653 289.675483,234.802596 C286.505197,236.267539 282.735543,237 278.366409,237 C273.837429,237 269.974533,236.227587 266.777606,234.682738 C263.580679,233.137888 260.983215,231.073681 258.985135,228.490054 C256.987056,225.906427 255.521819,222.909997 254.589382,219.500674 C253.656945,216.091352 253.190734,212.522271 253.190734,208.793324 L253.190734,179.787593 L266.298069,179.787593 L266.298069,208.793324 C266.298069,210.977422 266.511195,213.054946 266.937452,215.025961 C267.363709,216.996975 268.056366,218.754881 269.015444,220.29973 C269.974522,221.84458 271.213313,223.069786 272.731853,223.975388 C274.250394,224.880989 276.12856,225.333783 278.366409,225.333783 Z M313.692278,236.520566 L313.692278,179.787593 L337.90888,179.787593 C340.626268,179.787593 343.11717,180.346926 345.38166,181.46561 C347.64615,182.584294 349.590919,184.049215 351.216023,185.860418 C352.841128,187.671621 354.11988,189.72251 355.052317,192.013149 C355.984754,194.303788 356.450965,196.621027 356.450965,198.964936 C356.450965,201.468657 356.011394,203.865801 355.132239,206.15644 C354.253084,208.447078 353.027614,210.497968 351.455792,212.309171 C349.883969,214.120373 347.979162,215.55866 345.741313,216.624073 C343.503464,217.689486 341.025882,218.222185 338.308494,218.222185 L326.799614,218.222185 L326.799614,236.520566 L313.692278,236.520566 Z M326.799614,206.795684 L337.509266,206.795684 C339.054448,206.795684 340.386481,206.129811 341.505405,204.798045 C342.62433,203.466278 343.183784,201.521928 343.183784,198.964936 C343.183784,197.633169 343.010619,196.487867 342.664286,195.528995 C342.317952,194.570123 341.85174,193.771075 341.265637,193.131827 C340.679534,192.492579 340.013517,192.026468 339.267568,191.733479 C338.521618,191.440491 337.775679,191.293999 337.02973,191.293999 L326.799614,191.293999 L326.799614,206.795684 Z" id="Rapid-Response-Group" fill="var(--big_logo_c1)"></path>
                <path d="M-56.235,142.692 L-56.235,116.886 L-64.446,135.033 L-71.622,135.033 L-79.833,116.886 L-79.833,142.692 L-93.288,142.692 L-93.288,93.702 L-78.591,93.702 L-68.034,116.748 L-57.408,93.702 L-42.78,93.702 L-42.78,142.692 L-56.235,142.692 Z M-34.362,142.692 L-34.362,93.702 L-20.907,93.702 L-20.907,142.692 L-34.362,142.692 Z M25.668,105.432 L11.592,105.432 L11.592,142.692 L-1.863,142.692 L-1.863,105.432 L-16.008,105.432 L-16.008,93.702 L25.668,93.702 L25.668,105.432 Z M81.006,130.962 L81.006,142.692 L46.092,142.692 L46.092,93.702 L80.385,93.702 L80.385,105.432 L59.547,105.432 L59.547,112.332 L77.349,112.332 L77.349,123.234 L59.547,123.234 L59.547,130.962 L81.006,130.962 Z M116.955,109.71 C115.574993,108.881996 114.149007,108.146003 112.677,107.502 C111.434994,106.949997 110.043508,106.432502 108.5025,105.9495 C106.961492,105.466498 105.455007,105.225 103.983,105.225 C102.786994,105.225 101.832504,105.408998 101.1195,105.777 C100.406496,106.145002 100.05,106.765996 100.05,107.64 C100.05,108.284003 100.256998,108.812998 100.671,109.227 C101.085002,109.641002 101.682996,110.020498 102.465,110.3655 C103.247004,110.710502 104.201494,111.043998 105.3285,111.366 C106.455506,111.688002 107.731993,112.078998 109.158,112.539 C111.412011,113.229003 113.447491,113.987996 115.2645,114.816 C117.081509,115.644004 118.633994,116.621494 119.922,117.7485 C121.210006,118.875506 122.198997,120.243992 122.889,121.854 C123.579003,123.464008 123.924,125.418989 123.924,127.719 C123.924,130.663015 123.383505,133.13549 122.3025,135.1365 C121.221495,137.13751 119.795509,138.735994 118.0245,139.932 C116.253491,141.128006 114.252511,141.990497 112.0215,142.5195 C109.790489,143.048503 107.548011,143.313 105.294,143.313 C103.499991,143.313 101.660009,143.175001 99.774,142.899 C97.8879906,142.622999 96.0135093,142.232003 94.1505,141.726 C92.2874907,141.219997 90.4935086,140.622003 88.7685,139.932 C87.0434914,139.241997 85.4450074,138.460004 83.973,137.586 L89.769,125.787 C91.379008,126.799005 93.0579913,127.695996 94.806,128.478 C96.2780074,129.168003 97.9454907,129.788997 99.8085,130.341 C101.671509,130.893003 103.56899,131.169 105.501,131.169 C106.973007,131.169 107.996497,130.973502 108.5715,130.5825 C109.146503,130.191498 109.434,129.674003 109.434,129.03 C109.434,128.339997 109.146503,127.753502 108.5715,127.2705 C107.996497,126.787498 107.203005,126.362002 106.191,125.994 C105.178995,125.625998 104.017507,125.258002 102.7065,124.89 C101.395493,124.521998 100.004007,124.085003 98.532,123.579 C96.3699892,122.842996 94.5070078,122.049504 92.943,121.1985 C91.3789922,120.347496 90.0910051,119.381505 89.079,118.3005 C88.0669949,117.219495 87.3195024,115.989007 86.8365,114.609 C86.3534976,113.228993 86.112,111.642009 86.112,109.848 C86.112,107.133986 86.6064951,104.74201 87.5955,102.672 C88.5845049,100.60199 89.9299915,98.8770069 91.632,97.497 C93.3340085,96.1169931 95.2774891,95.0705036 97.4625,94.3575 C99.6475109,93.6444964 101.958988,93.288 104.397,93.288 C106.191009,93.288 107.938991,93.4604983 109.641,93.8055 C111.343009,94.1505017 112.987492,94.5874974 114.5745,95.1165 C116.161508,95.6455026 117.644993,96.2204969 119.025,96.8415 C120.405007,97.4625031 121.646994,98.0489972 122.751,98.601 L116.955,109.71 Z M129.858,142.692 L129.858,93.702 L143.313,93.702 L143.313,142.692 L129.858,142.692 Z" id="MIT-ESI" fill="var(--big_logo_c2)" transform="translate(25.012500, 118.300500) rotate(-90.000000) translate(-25.012500, -118.300500) "></path>
            </g>
        </g>
    </g>
</svg>
