<?xml version="1.0" encoding="UTF-8"?>
<svg width="98px" height="49px" viewBox="0 0 98 49" version="1.1" xmlns="http://www.w3.org/2000/svg" xmlns:xlink="http://www.w3.org/1999/xlink">
    <!-- Generator: Sketch 52.2 (67145) - http://www.bohemiancoding.com/sketch -->
    <title>Group 3</title>
    <desc>Created with Sketch.</desc>
    <g id="Page-1" stroke="none" stroke-width="1" fill="none" fill-rule="evenodd">
        <g id="About" transform="translate(-29.000000, -13.000000)">
            <g id="Group-3" transform="translate(29.000000, 13.000000)">
                <path d="M16.1733685,12.2508429 L16.1733685,1 L21.2676335,1 C21.7982887,1 22.2891375,1.11092269 22.7401945,1.33277141 C23.1912514,1.55462012 23.5812772,1.84513194 23.9102835,2.20431558 C24.2392897,2.56349921 24.4966537,2.97021576 24.682383,3.42447741 C24.8681123,3.87873907 24.9609756,4.33827594 24.9609756,4.80310182 C24.9609756,5.15172123 24.9185238,5.48713033 24.833619,5.80933918 C24.7487141,6.13154803 24.6266653,6.43526493 24.4674687,6.72049899 C24.3082721,7.00573305 24.1145858,7.26191165 23.8864041,7.48904248 C23.6582223,7.71617331 23.4008584,7.90896752 23.1143045,8.06743088 L25.5977587,12.2508429 L22.6526368,12.2508429 L20.4875742,8.6220499 L18.7841793,8.6220499 L18.7841793,12.2508429 L16.1733685,12.2508429 Z M18.7841793,6.35603506 L21.172116,6.35603506 C21.4798961,6.35603506 21.7452197,6.21077916 21.9680949,5.92026298 C22.1909701,5.62974681 22.3024061,5.25736348 22.3024061,4.80310182 C22.3024061,4.33827594 22.1750507,3.96853363 21.9203362,3.69386379 C21.6656217,3.41919395 21.3896851,3.28186109 21.0925181,3.28186109 L18.7841793,3.28186109 L18.7841793,6.35603506 Z M29.9119644,1 L32.268062,1 L36.3912327,12.2508429 L33.7167436,12.2508429 L32.8411668,9.73128793 L29.32294,9.73128793 L28.4632828,12.2508429 L25.7887937,12.2508429 L29.9119644,1 Z M32.4113382,7.94066082 L31.0900132,3.96325017 L29.736849,7.94066082 L32.4113382,7.94066082 Z M37.5056032,12.2508429 L37.5056032,1 L42.3292353,1 C42.8705037,1 43.3666589,1.11092269 43.8177159,1.33277141 C44.2687729,1.55462012 44.6561454,1.84513194 44.9798451,2.20431558 C45.3035448,2.56349921 45.5582555,2.97021576 45.7439848,3.42447741 C45.9297142,3.87873907 46.0225775,4.33827594 46.0225775,4.80310182 C46.0225775,5.29962037 45.9350207,5.77500335 45.7599044,6.229265 C45.5847882,6.68352666 45.3406904,7.0902432 45.0276038,7.44942684 C44.7145172,7.80861047 44.3351044,8.09384026 43.889354,8.30512475 C43.4436036,8.51640924 42.9501016,8.6220499 42.4088332,8.6220499 L40.116414,8.6220499 L40.116414,12.2508429 L37.5056032,12.2508429 Z M40.116414,6.35603506 L42.2496374,6.35603506 C42.5574175,6.35603506 42.8227411,6.22398424 43.0456163,5.95987862 C43.2684916,5.69577301 43.3799275,5.3101846 43.3799275,4.80310182 C43.3799275,4.53899621 43.3454354,4.31186879 43.2764502,4.12171274 C43.207465,3.9315567 43.1146018,3.77309571 42.9978576,3.64632502 C42.8811135,3.51955432 42.7484516,3.42711874 42.5998682,3.36901551 C42.4512847,3.31091227 42.3027034,3.28186109 42.15412,3.28186109 L40.116414,3.28186109 L40.116414,6.35603506 Z M47.4235003,12.2508429 L47.4235003,1 L50.0343111,1 L50.0343111,12.2508429 L47.4235003,12.2508429 Z M52.1993738,12.2508429 L52.1993738,1 L56.418062,1 C57.3520152,1 58.1692121,1.14789693 58.869677,1.44369521 C59.5701419,1.7394935 60.1565072,2.14092801 60.6287904,2.64801079 C61.1010736,3.15509357 61.4566072,3.74932228 61.6954021,4.43071477 C61.934197,5.11210725 62.0535926,5.83838679 62.0535926,6.60957519 C62.0535926,7.46527737 61.9209308,8.23909521 61.6556032,8.93105192 C61.3902755,9.62300863 61.0108627,10.2145963 60.5173533,10.7058328 C60.0238439,11.1970692 59.429519,11.5773756 58.7343606,11.8467633 C58.0392022,12.116151 57.2671104,12.2508429 56.418062,12.2508429 L52.1993738,12.2508429 Z M59.3950231,6.60957519 C59.3950231,6.11305663 59.3286922,5.66144281 59.1960283,5.25472016 C59.0633645,4.84799752 58.8696783,4.49674232 58.6149637,4.20094403 C58.3602492,3.90514575 58.0471673,3.67801832 57.6757086,3.51955496 C57.30425,3.36109159 56.8850386,3.28186109 56.418062,3.28186109 L54.8101846,3.28186109 L54.8101846,9.96898179 L56.418062,9.96898179 C56.8956517,9.96898179 57.3201695,9.88446927 57.6916282,9.71544167 C58.0630869,9.54641408 58.3735156,9.31136361 58.6229235,9.01028321 C58.8723315,8.70920281 59.0633645,8.3553066 59.1960283,7.94858395 C59.3286922,7.54186131 59.3950231,7.09552951 59.3950231,6.60957519 Z M16.1733685,30.0778827 L16.1733685,18.8270398 L21.2676335,18.8270398 C21.7982887,18.8270398 22.2891375,18.9379625 22.7401945,19.1598112 C23.1912514,19.3816599 23.5812772,19.6721717 23.9102835,20.0313554 C24.2392897,20.390539 24.4966537,20.7972555 24.682383,21.2515172 C24.8681123,21.7057789 24.9609756,22.1653157 24.9609756,22.6301416 C24.9609756,22.978761 24.9185238,23.3141701 24.833619,23.636379 C24.7487141,23.9585878 24.6266653,24.2623047 24.4674687,24.5475388 C24.3082721,24.8327728 24.1145858,25.0889514 23.8864041,25.3160823 C23.6582223,25.5432131 23.4008584,25.7360073 23.1143045,25.8944707 L25.5977587,30.0778827 L22.6526368,30.0778827 L20.4875742,26.4490897 L18.7841793,26.4490897 L18.7841793,30.0778827 L16.1733685,30.0778827 Z M18.7841793,24.1830748 L21.172116,24.1830748 C21.4798961,24.1830748 21.7452197,24.0378189 21.9680949,23.7473028 C22.1909701,23.4567866 22.3024061,23.0844033 22.3024061,22.6301416 C22.3024061,22.1653157 22.1750507,21.7955734 21.9203362,21.5209036 C21.6656217,21.2462337 21.3896851,21.1089009 21.0925181,21.1089009 L18.7841793,21.1089009 L18.7841793,24.1830748 Z M34.7833553,27.7960216 L34.7833553,30.0778827 L26.8394858,30.0778827 L26.8394858,18.8270398 L34.6400791,18.8270398 L34.6400791,21.1089009 L29.4502966,21.1089009 L29.4502966,23.2956844 L33.9077785,23.2956844 L33.9077785,25.4032367 L29.4502966,25.4032367 L29.4502966,27.7960216 L34.7833553,27.7960216 Z M43.1570534,22.1230614 C43.1252141,22.0808045 43.0137781,22.001574 42.8227423,21.8853675 C42.6317064,21.769161 42.3929151,21.6476743 42.1063612,21.5209036 C41.8198074,21.3941329 41.5067255,21.2832102 41.1671061,21.1881322 C40.8274868,21.0930541 40.4878725,21.0455158 40.1482531,21.0455158 C39.2142999,21.0455158 38.7473303,21.3571558 38.7473303,21.980445 C38.7473303,22.1706011 38.7977418,22.3290621 38.8985662,22.4558328 C38.9993907,22.5826035 39.147972,22.6961672 39.3443144,22.7965273 C39.5406569,22.8968874 39.7874079,22.989323 40.0845748,23.0738368 C40.3817418,23.1583506 40.7266625,23.2534272 41.1193474,23.3590695 C41.6606158,23.5069686 42.1488113,23.6680706 42.5839486,23.8423803 C43.0190859,24.01669 43.3878858,24.2332534 43.6903593,24.4920769 C43.9928328,24.7509004 44.2263176,25.0651813 44.3908207,25.4349292 C44.5553238,25.8046771 44.6375742,26.2483678 44.6375742,26.7660148 C44.6375742,27.3998683 44.5181785,27.9359947 44.2793837,28.37441 C44.0405888,28.8128253 43.7248536,29.1667215 43.3321688,29.4361092 C42.9394839,29.705497 42.4884337,29.9009322 41.9790046,30.0224208 C41.4695756,30.1439094 40.9442347,30.2046527 40.4029664,30.2046527 C39.9890553,30.2046527 39.5645374,30.1729605 39.1294001,30.1095752 C38.6942628,30.0461898 38.269745,29.9537543 37.8558339,29.8322657 C37.4419228,29.7107771 37.0412841,29.5655212 36.6539057,29.3964936 C36.2665274,29.227466 35.9083405,29.0320308 35.5793342,28.8101821 L36.7255438,26.5441672 C36.7679963,26.5969884 36.9059646,26.697347 37.1394529,26.8452461 C37.3729412,26.9931453 37.662144,27.1410422 38.0070699,27.2889413 C38.3519958,27.4368405 38.7367151,27.5688913 39.1612393,27.6850978 C39.5857635,27.8013042 40.0155878,27.8594066 40.4507251,27.8594066 C41.3740653,27.8594066 41.8357284,27.5794589 41.8357284,27.019555 C41.8357284,26.8082705 41.7667443,26.6339634 41.6287739,26.4966285 C41.4908035,26.3592935 41.2997705,26.2351658 41.0556691,26.1242414 C40.8115677,26.013317 40.5223649,25.9103174 40.1880521,25.8152394 C39.8537393,25.7201614 39.4902459,25.6145207 39.097561,25.4983142 C38.5775188,25.3398509 38.1264686,25.1681848 37.7443968,24.9833109 C37.3623251,24.7984369 37.0465899,24.5845146 36.7971819,24.3415374 C36.547774,24.0985603 36.3620474,23.8186125 36.2399967,23.5016858 C36.117946,23.184759 36.0569216,22.8150167 36.0569216,22.3924477 C36.0569216,21.8008512 36.1683575,21.2779299 36.3912327,20.8236682 C36.6141079,20.3694066 36.9165769,19.9864592 37.2986486,19.6748146 C37.6807204,19.3631699 38.1238109,19.1281195 38.6279334,18.9696561 C39.1320559,18.8111927 39.6653564,18.7319622 40.227851,18.7319622 C40.6205359,18.7319622 41.0079084,18.7689365 41.3899802,18.842886 C41.772052,18.9168356 42.1381986,19.0119122 42.4884311,19.1281187 C42.8386636,19.2443251 43.1650117,19.376376 43.4674852,19.5242751 C43.7699587,19.6721743 44.0485485,19.8200712 44.303263,19.9679703 L43.1570534,22.1230614 Z M46.1658537,30.0778827 L46.1658537,18.8270398 L50.9894858,18.8270398 C51.5307542,18.8270398 52.0269094,18.9379625 52.4779664,19.1598112 C52.9290233,19.3816599 53.3163959,19.6721717 53.6400956,20.0313554 C53.9637953,20.390539 54.218506,20.7972555 54.4042353,21.2515172 C54.5899647,21.7057789 54.6828279,22.1653157 54.6828279,22.6301416 C54.6828279,23.1266602 54.5952711,23.6020431 54.4201549,24.0563048 C54.2450387,24.5105664 54.0009409,24.917283 53.6878543,25.2764666 C53.3747677,25.6356503 52.9953549,25.92088 52.5496045,26.1321645 C52.1038541,26.343449 51.6103521,26.4490897 51.0690837,26.4490897 L48.7766645,26.4490897 L48.7766645,30.0778827 L46.1658537,30.0778827 Z M48.7766645,24.1830748 L50.9098879,24.1830748 C51.217668,24.1830748 51.4829916,24.051024 51.7058668,23.7869184 C51.9287421,23.5228128 52.040178,23.1372244 52.040178,22.6301416 C52.040178,22.366036 52.0056859,22.1389086 51.9367007,21.9487525 C51.8677155,21.7585965 51.7748523,21.6001355 51.6581081,21.4733648 C51.541364,21.3465941 51.4087021,21.2541585 51.2601187,21.1960553 C51.1115352,21.1379521 50.9629539,21.1089009 50.8143705,21.1089009 L48.7766645,21.1089009 L48.7766645,24.1830748 Z M61.0347396,30.1729602 C60.1963043,30.1729602 59.4321722,30.0092172 58.7423204,29.6817262 C58.0524685,29.3542353 57.46345,28.9237496 56.9752472,28.3902562 C56.4870444,27.8567629 56.1076315,27.2466881 55.8369974,26.5600135 C55.5663632,25.8733389 55.4310481,25.1655465 55.4310481,24.436615 C55.4310481,23.6971193 55.5716697,22.9840448 55.8529169,22.2973702 C56.1341642,21.6106956 56.5268432,21.0059028 57.0309657,20.4829737 C57.5350882,19.9600446 58.1320664,19.542764 58.8219183,19.2311194 C59.5117701,18.9194747 60.2652893,18.7636548 61.0824984,18.7636548 C61.9209337,18.7636548 62.6850658,18.9273978 63.3749176,19.2548887 C64.0647694,19.5823797 64.6537879,20.0155064 65.1419908,20.5542819 C65.6301936,21.0930573 66.0069532,21.7057731 66.2722808,22.3924477 C66.5376084,23.0791223 66.6702703,23.7763507 66.6702703,24.4841537 C66.6702703,25.2236495 66.5296487,25.9367239 66.2484015,26.6233985 C65.9671542,27.3100731 65.5771284,27.9148659 65.0783125,28.437795 C64.5794965,28.9607241 63.9851715,29.3806458 63.2953197,29.6975725 C62.6054679,30.0144992 61.8519487,30.1729602 61.0347396,30.1729602 Z M58.0896177,24.4683075 C58.0896177,24.9014407 58.1532953,25.3213623 58.2806526,25.728085 C58.4080099,26.1348076 58.5963897,26.4966269 58.8457976,26.8135536 C59.0952056,27.1304803 59.4056343,27.3840179 59.7770929,27.574174 C60.1485516,27.76433 60.5730695,27.8594066 61.0506592,27.8594066 C61.5494751,27.8594066 61.9846059,27.759048 62.3560646,27.5583277 C62.7275233,27.3576074 63.0352987,27.0961468 63.2794001,26.773938 C63.5235016,26.4517291 63.7065749,26.0872688 63.8286256,25.6805462 C63.9506763,25.2738235 64.0117007,24.859184 64.0117007,24.436615 C64.0117007,24.0034818 63.948023,23.5835601 63.8206658,23.1768375 C63.6933085,22.7701148 63.5022755,22.4109366 63.247561,22.099292 C62.9928465,21.7876474 62.6824178,21.5393918 62.3162657,21.3545179 C61.9501135,21.1696439 61.5282489,21.0772084 61.0506592,21.0772084 C60.5518433,21.0772084 60.1193657,21.174926 59.7532136,21.3703641 C59.3870615,21.5658023 59.079286,21.8219809 58.829878,22.1389076 C58.5804701,22.4558344 58.3947435,22.8176536 58.2726928,23.2243763 C58.1506421,23.6310989 58.0896177,24.0457385 58.0896177,24.4683075 Z M70.793441,23.6443021 L70.793441,30.0778827 L68.1826302,30.0778827 L68.1826302,18.8270398 L70.2203362,18.8270398 L75.4897165,25.4349292 L75.4897165,18.8270398 L78.1005274,18.8270398 L78.1005274,30.0778827 L75.999143,30.0778827 L70.793441,23.6443021 Z M87.0473303,22.1230614 C87.0154909,22.0808045 86.904055,22.001574 86.7130191,21.8853675 C86.5219832,21.769161 86.2831919,21.6476743 85.9966381,21.5209036 C85.7100843,21.3941329 85.3970024,21.2832102 85.057383,21.1881322 C84.7177636,21.0930541 84.3781494,21.0455158 84.03853,21.0455158 C83.1045767,21.0455158 82.6376071,21.3571558 82.6376071,21.980445 C82.6376071,22.1706011 82.6880186,22.3290621 82.7888431,22.4558328 C82.8896676,22.5826035 83.0382489,22.6961672 83.2345913,22.7965273 C83.4309337,22.8968874 83.6776847,22.989323 83.9748517,23.0738368 C84.2720186,23.1583506 84.6169394,23.2534272 85.0096243,23.3590695 C85.5508926,23.5069686 86.0390881,23.6680706 86.4742254,23.8423803 C86.9093628,24.01669 87.2781626,24.2332534 87.5806361,24.4920769 C87.8831096,24.7509004 88.1165944,25.0651813 88.2810976,25.4349292 C88.4456007,25.8046771 88.527851,26.2483678 88.527851,26.7660148 C88.527851,27.3998683 88.4084554,27.9359947 88.1696605,28.37441 C87.9308656,28.8128253 87.6151305,29.1667215 87.2224456,29.4361092 C86.8297607,29.705497 86.3787105,29.9009322 85.8692815,30.0224208 C85.3598524,30.1439094 84.8345116,30.2046527 84.2932432,30.2046527 C83.8793321,30.2046527 83.4548143,30.1729605 83.019677,30.1095752 C82.5845397,30.0461898 82.1600218,29.9537543 81.7461107,29.8322657 C81.3321996,29.7107771 80.9315609,29.5655212 80.5441826,29.3964936 C80.1568043,29.227466 79.7986173,29.0320308 79.4696111,28.8101821 L80.6158207,26.5441672 C80.6582731,26.5969884 80.7962414,26.697347 81.0297297,26.8452461 C81.263218,26.9931453 81.5524208,27.1410422 81.8973467,27.2889413 C82.2422727,27.4368405 82.6269919,27.5688913 83.0515162,27.6850978 C83.4760404,27.8013042 83.9058647,27.8594066 84.341002,27.8594066 C85.2643421,27.8594066 85.7260053,27.5794589 85.7260053,27.019555 C85.7260053,26.8082705 85.6570211,26.6339634 85.5190508,26.4966285 C85.3810804,26.3592935 85.1900474,26.2351658 84.9459459,26.1242414 C84.7018445,26.013317 84.4126418,25.9103174 84.0783289,25.8152394 C83.7440161,25.7201614 83.3805227,25.6145207 82.9878378,25.4983142 C82.4677957,25.3398509 82.0167455,25.1681848 81.6346737,24.9833109 C81.2526019,24.7984369 80.9368668,24.5845146 80.6874588,24.3415374 C80.4380508,24.0985603 80.2523243,23.8186125 80.1302736,23.5016858 C80.0082229,23.184759 79.9471984,22.8150167 79.9471984,22.3924477 C79.9471984,21.8008512 80.0586344,21.2779299 80.2815096,20.8236682 C80.5043848,20.3694066 80.8068537,19.9864592 81.1889255,19.6748146 C81.5709973,19.3631699 82.0140878,19.1281195 82.5182103,18.9696561 C83.0223328,18.8111927 83.5556333,18.7319622 84.1181279,18.7319622 C84.5108128,18.7319622 84.8981853,18.7689365 85.2802571,18.842886 C85.6623289,18.9168356 86.0284755,19.0119122 86.378708,19.1281187 C86.7289404,19.2443251 87.0552885,19.376376 87.357762,19.5242751 C87.6602355,19.6721743 87.9388254,19.8200712 88.1935399,19.9679703 L87.0473303,22.1230614 Z M98,27.7960216 L98,30.0778827 L90.0561305,30.0778827 L90.0561305,18.8270398 L97.8567238,18.8270398 L97.8567238,21.1089009 L92.6669413,21.1089009 L92.6669413,23.2956844 L97.1244232,23.2956844 L97.1244232,25.4032367 L92.6669413,25.4032367 L92.6669413,27.7960216 L98,27.7960216 Z M23.9421226,46.7956844 C23.0824611,47.5880013 22.0901506,47.9841537 20.9651615,47.9841537 C20.2222441,47.9841537 19.5217897,47.8441799 18.8637772,47.5642279 C18.2057647,47.284276 17.6300124,46.8907645 17.136503,46.3836817 C16.6429936,45.8765989 16.2529678,45.2665241 15.966414,44.553439 C15.6798601,43.8403538 15.5365854,43.0559719 15.5365854,42.2002697 C15.5365854,41.4290813 15.6798601,40.7001608 15.966414,40.0134862 C16.2529678,39.3268116 16.6483001,38.7299418 17.1524225,38.2228591 C17.656545,37.7157763 18.2535232,37.3143418 18.9433751,37.0185435 C19.6332269,36.7227452 20.3761331,36.5748483 21.172116,36.5748483 C22.2228134,36.5748483 23.1408333,36.7940527 23.926203,37.232468 C24.7115728,37.6708833 25.3005913,38.270394 25.6932762,39.0310182 L23.7510877,40.4888739 C23.4963731,39.9817911 23.1275733,39.5882797 22.644677,39.3083277 C22.1617807,39.0283758 21.6390931,38.8884019 21.0765985,38.8884019 C20.6414612,38.8884019 20.246129,38.9755554 19.89059,39.1498651 C19.535051,39.3241748 19.2299288,39.5671484 18.9752142,39.878793 C18.7204997,40.1904376 18.5241602,40.5522569 18.3861898,40.9642616 C18.2482195,41.3762664 18.1792353,41.8199572 18.1792353,42.2953473 C18.1792353,42.7813016 18.253526,43.2302744 18.4021094,43.6422792 C18.5506929,44.0542839 18.7576453,44.4108212 19.022973,44.7119016 C19.2883006,45.012982 19.6040357,45.2480324 19.9701879,45.41706 C20.33634,45.5860876 20.7422852,45.6706001 21.1880356,45.6706001 C22.2068937,45.6706001 23.1249135,45.2004992 23.9421226,44.2602832 L23.9421226,43.9116655 L21.7452208,43.9116655 L21.7452208,42.0259609 L26.1071852,42.0259609 L26.1071852,47.9049225 L23.9421226,47.9049225 L23.9421226,46.7956844 Z M27.8264997,47.9049225 L27.8264997,36.6540796 L32.9207647,36.6540796 C33.4514199,36.6540796 33.9422687,36.7650023 34.3933256,36.986851 C34.8443826,37.2086997 35.2344084,37.4992115 35.5634146,37.8583951 C35.8924209,38.2175788 36.1497848,38.6242953 36.3355142,39.078557 C36.5212435,39.5328186 36.6141068,39.9923555 36.6141068,40.4571814 C36.6141068,40.8058008 36.571655,41.1412099 36.4867502,41.4634187 C36.4018453,41.7856276 36.2797964,42.0893445 36.1205999,42.3745786 C35.9614033,42.6598126 35.767717,42.9159912 35.5395353,43.143122 C35.3113535,43.3702529 35.0539896,43.5630471 34.7674357,43.7215105 L37.2508899,47.9049225 L34.305768,47.9049225 L32.1407053,44.2761295 L30.4373105,44.2761295 L30.4373105,47.9049225 L27.8264997,47.9049225 Z M30.4373105,42.0101146 L32.8252472,42.0101146 C33.1330272,42.0101146 33.3983509,41.8648587 33.6212261,41.5743425 C33.8441013,41.2838264 33.9555372,40.911443 33.9555372,40.4571814 C33.9555372,39.9923555 33.8281819,39.6226132 33.5734674,39.3479434 C33.3187528,39.0732735 33.0428163,38.9359407 32.7456493,38.9359407 L30.4373105,38.9359407 L30.4373105,42.0101146 Z M43.4436058,48 C42.6051705,48 41.8410384,47.836257 41.1511866,47.508766 C40.4613347,47.1812751 39.8723162,46.7507894 39.3841134,46.217296 C38.8959105,45.6838027 38.5164977,45.0737279 38.2458635,44.3870533 C37.9752294,43.7003787 37.8399143,42.9925862 37.8399143,42.2636548 C37.8399143,41.524159 37.9805358,40.8110846 38.2617831,40.12441 C38.5430304,39.4377354 38.9357094,38.8329426 39.4398319,38.3100135 C39.9439544,37.7870844 40.5409326,37.3698038 41.2307844,37.0581591 C41.9206363,36.7465145 42.6741554,36.5906945 43.4913645,36.5906945 C44.3297998,36.5906945 45.0939319,36.7544376 45.7837838,37.0819285 C46.4736356,37.4094195 47.0626541,37.8425462 47.550857,38.3813216 C48.0390598,38.9200971 48.4158194,39.5328129 48.681147,40.2194875 C48.9464746,40.9061621 49.0791365,41.6033905 49.0791365,42.3111935 C49.0791365,43.0506892 48.9385149,43.7637637 48.6572676,44.4504383 C48.3760203,45.1371129 47.9859946,45.7419057 47.4871786,46.2648348 C46.9883627,46.7877639 46.3940377,47.2076855 45.7041859,47.5246123 C45.0143341,47.841539 44.2608149,48 43.4436058,48 Z M40.4984838,42.2953473 C40.4984838,42.7284805 40.5621615,43.1484021 40.6895188,43.5551247 C40.816876,43.9618474 41.0052558,44.3236667 41.2546638,44.6405934 C41.5040718,44.9575201 41.8145004,45.2110577 42.1859591,45.4012138 C42.5574178,45.5913698 42.9819356,45.6864464 43.4595254,45.6864464 C43.9583413,45.6864464 44.3934721,45.5860878 44.7649308,45.3853675 C45.1363895,45.1846472 45.4441649,44.9231866 45.6882663,44.6009777 C45.9323677,44.2787689 46.1154411,43.9143086 46.2374918,43.507586 C46.3595425,43.1008633 46.4205669,42.6862237 46.4205669,42.2636548 C46.4205669,41.8305215 46.3568892,41.4105999 46.229532,41.0038773 C46.1021747,40.5971546 45.9111417,40.2379764 45.6564272,39.9263318 C45.4017126,39.6146871 45.091284,39.3664316 44.7251318,39.1815577 C44.3589797,38.9966837 43.9371151,38.9042481 43.4595254,38.9042481 C42.9607094,38.9042481 42.5282319,39.0019658 42.1620798,39.1974039 C41.7959276,39.3928421 41.4881522,39.6490207 41.2387442,39.9659474 C40.9893363,40.2828741 40.8036097,40.6446934 40.681559,41.051416 C40.5595083,41.4581387 40.4984838,41.8727783 40.4984838,42.2953473 Z M55.4469677,45.6864464 C55.8927181,45.6864464 56.2694777,45.5940108 56.5772577,45.4091369 C56.8850378,45.224263 57.134442,44.9786484 57.3254779,44.6722859 C57.5165138,44.3659234 57.6518289,44.0146682 57.7314272,43.6185098 C57.8110254,43.2223514 57.850824,42.8182758 57.850824,42.4062711 L57.850824,36.6540796 L60.4616348,36.6540796 L60.4616348,42.4062711 C60.4616348,43.1880237 60.3634651,43.9169442 60.1671226,44.5930546 C59.9707802,45.269165 59.6683112,45.8607527 59.2597067,46.3678355 C58.8511021,46.8749182 58.3310678,47.2737117 57.699588,47.5642279 C57.0681082,47.8547441 56.3172423,48 55.4469677,48 C54.5448538,48 53.7754152,47.846821 53.1386289,47.5404585 C52.5018426,47.234096 51.9844614,46.8247385 51.58647,46.3123736 C51.1884786,45.8000087 50.8966226,45.20578 50.7108932,44.5296696 C50.5251639,43.8535592 50.4323006,43.1457668 50.4323006,42.4062711 L50.4323006,36.6540796 L53.0431114,36.6540796 L53.0431114,42.4062711 C53.0431114,42.8394043 53.0855632,43.2514029 53.170468,43.6422792 C53.2553729,44.0331555 53.3933412,44.3817697 53.5843771,44.6881322 C53.775413,44.9944947 54.0221639,45.2374682 54.3246374,45.41706 C54.6271109,45.5966518 55.0012173,45.6864464 55.4469677,45.6864464 Z M62.4834212,47.9049225 L62.4834212,36.6540796 L67.3070534,36.6540796 C67.8483218,36.6540796 68.344477,36.7650023 68.7955339,36.986851 C69.2465909,37.2086997 69.6339634,37.4992115 69.9576632,37.8583951 C70.2813629,38.2175788 70.5360736,38.6242953 70.7218029,39.078557 C70.9075322,39.5328186 71.0003955,39.9923555 71.0003955,40.4571814 C71.0003955,40.9536999 70.9128387,41.4290829 70.7377225,41.8833446 C70.5626062,42.3376062 70.3185085,42.7443228 70.0054219,43.1035064 C69.6923353,43.46269 69.3129225,43.7479198 68.8671721,43.9592043 C68.4214216,44.1704888 67.9279196,44.2761295 67.3866513,44.2761295 L65.094232,44.2761295 L65.094232,47.9049225 L62.4834212,47.9049225 Z M65.094232,42.0101146 L67.2274555,42.0101146 C67.5352356,42.0101146 67.8005592,41.8780638 68.0234344,41.6139582 C68.2463096,41.3498526 68.3577456,40.9642642 68.3577456,40.4571814 C68.3577456,40.1930758 68.3232535,39.9659484 68.2542683,39.7757923 C68.1852831,39.5856363 68.0924198,39.4271753 67.9756757,39.3004046 C67.8589315,39.1736339 67.7262697,39.0811983 67.5776862,39.0230951 C67.4291028,38.9649918 67.2805215,38.9359407 67.131938,38.9359407 L65.094232,38.9359407 L65.094232,42.0101146 Z" id="Rapid-Response-Group" fill="#003B4D"></path>
                <path d="M-11.2012805,29.2975696 L-11.2012805,24.1799241 L-12.8368049,27.7786962 L-14.2661707,27.7786962 L-15.9016951,24.1799241 L-15.9016951,29.2975696 L-18.5817561,29.2975696 L-18.5817561,19.5822532 L-15.6543049,19.5822532 L-13.5514878,24.152557 L-11.4349268,19.5822532 L-8.52121951,19.5822532 L-8.52121951,29.2975696 L-11.2012805,29.2975696 Z M-6.84446341,29.2975696 L-6.84446341,19.5822532 L-4.16440244,19.5822532 L-4.16440244,29.2975696 L-6.84446341,29.2975696 Z M5.11273171,21.9084557 L2.30897561,21.9084557 L2.30897561,29.2975696 L-0.371085366,29.2975696 L-0.371085366,21.9084557 L-3.18858537,21.9084557 L-3.18858537,19.5822532 L5.11273171,19.5822532 L5.11273171,21.9084557 Z M16.1353415,26.9713671 L16.1353415,29.2975696 L9.18092683,29.2975696 L9.18092683,19.5822532 L16.0116463,19.5822532 L16.0116463,21.9084557 L11.8609878,21.9084557 L11.8609878,23.2768101 L15.4069146,23.2768101 L15.4069146,25.4388101 L11.8609878,25.4388101 L11.8609878,26.9713671 L16.1353415,26.9713671 Z M23.2959146,22.7568354 C23.0210352,22.5926321 22.7369974,22.4466757 22.4437927,22.318962 C22.1964012,22.2094931 21.9192353,22.1068676 21.6122866,22.0110823 C21.3053379,21.915297 21.0052657,21.8674051 20.712061,21.8674051 C20.4738321,21.8674051 20.2837101,21.9038941 20.141689,21.9768734 C19.999668,22.0498527 19.9286585,22.1730034 19.9286585,22.3463291 C19.9286585,22.4740428 19.9698898,22.578949 20.0523537,22.6610506 C20.1348175,22.7431523 20.2539301,22.8184111 20.4096951,22.8868291 C20.5654601,22.9552472 20.7555822,23.0213836 20.9800671,23.0852405 C21.2045519,23.1490974 21.4588116,23.2266367 21.7428537,23.3178608 C22.1918234,23.4546969 22.5972645,23.6052144 22.959189,23.7694177 C23.3211136,23.9336211 23.6303483,24.1274693 23.8869024,24.3509684 C24.1434566,24.5744674 24.3404505,24.8458549 24.4778902,25.1651392 C24.61533,25.4844235 24.6840488,25.8721201 24.6840488,26.3282405 C24.6840488,26.9120746 24.5763893,27.4023968 24.3610671,27.7992215 C24.1457449,28.1960463 23.861707,28.5130452 23.5089451,28.7502278 C23.1561832,28.9874105 22.757614,29.1584531 22.3132256,29.2633608 C21.8688372,29.3682685 21.4221648,29.4207215 20.9731951,29.4207215 C20.6158519,29.4207215 20.2493515,29.3933547 19.8736829,29.3386203 C19.4980144,29.2838858 19.1246421,29.2063465 18.7535549,29.106 C18.3824677,29.0056535 18.0251298,28.887064 17.6815305,28.7502278 C17.3379312,28.6133917 17.019534,28.4583131 16.7263293,28.2849873 L17.8808171,25.9451013 C18.2015097,26.1457943 18.5359413,26.3236785 18.884122,26.4787595 C19.1773267,26.6155956 19.5094677,26.7387463 19.8805549,26.8482152 C20.2516421,26.9576841 20.6295956,27.0124177 21.0144268,27.0124177 C21.3076315,27.0124177 21.5114974,26.9736481 21.6260305,26.8961076 C21.7405636,26.8185671 21.7978293,26.7159416 21.7978293,26.5882278 C21.7978293,26.4513917 21.7405636,26.3350828 21.6260305,26.2392975 C21.5114974,26.1435122 21.3534441,26.0591312 21.1518659,25.9861519 C20.9502876,25.9131726 20.7189342,25.8401945 20.4577988,25.7672152 C20.1966633,25.6942359 19.9194974,25.6075743 19.6262927,25.5072278 C19.1956483,25.3612693 18.8245666,25.2039101 18.5130366,25.0351456 C18.2015066,24.866381 17.9449563,24.6748133 17.743378,24.4604367 C17.5417998,24.2460601 17.392909,24.0020393 17.2967012,23.7283671 C17.2004934,23.4546948 17.1523902,23.1399765 17.1523902,22.7842025 C17.1523902,22.2459804 17.2508872,21.7716223 17.4478841,21.3611139 C17.6448811,20.9506055 17.9128845,20.6085204 18.2519024,20.3348481 C18.5909204,20.0611758 18.9780364,19.8536442 19.4132622,19.7122468 C19.8484879,19.5708495 20.3089041,19.5001519 20.7945244,19.5001519 C21.1518676,19.5001519 21.500043,19.5343604 21.839061,19.6027785 C22.1780789,19.6711965 22.5056387,19.7578581 22.82175,19.8627658 C23.1378613,19.9676735 23.4333523,20.0817019 23.7082317,20.2048544 C23.9831111,20.3280069 24.2304989,20.4443159 24.4504024,20.5537848 L23.2959146,22.7568354 Z M25.8660244,29.2975696 L25.8660244,19.5822532 L28.5460854,19.5822532 L28.5460854,29.2975696 L25.8660244,29.2975696 Z" id="MIT-ESI" fill="#FF7F50" transform="translate(4.982165, 24.460437) rotate(-90.000000) translate(-4.982165, -24.460437) "></path>
            </g>
        </g>
    </g>
</svg>