<?xml version="1.0" encoding="UTF-8"?>
<svg width="19px" height="22px" viewBox="0 0 19 22" version="1.1" xmlns="http://www.w3.org/2000/svg" xmlns:xlink="http://www.w3.org/1999/xlink">
    <!-- Generator: Sketch 52.2 (67145) - http://www.bohemiancoding.com/sketch -->
    <title>star</title>
    <desc>Created with Sketch.</desc>
    <g id="Page-1" stroke="none" stroke-width="1" fill="none" fill-rule="evenodd">
        <g id="Project-Details-or-Story-Page" transform="translate(-205.000000, -394.000000)">
            <g id="clarity-star-solid" transform="translate(204.000000, 393.000000)">
                <g id="Icon" transform="translate(0.769231, 0.769231)" fill="#F5A623">
                    <path d="M18.1196581,8.55299145 C18.5429938,8.23762251 18.7186805,7.68779892 18.5566527,7.18538709 C18.3946249,6.68297525 17.9308137,6.33938973 17.4029915,6.33076923 L12.4029915,6.14188034 C12.3527731,6.13841351 12.3092696,6.10578588 12.2918803,6.05854701 L10.5641026,1.39188034 C10.3862805,0.905542379 9.9235967,0.582073867 9.40576923,0.582073867 C8.88794176,0.582073867 8.42525793,0.905542379 8.2474359,1.39188034 L6.52521368,6.07521368 C6.50782439,6.12245254 6.46432088,6.15508017 6.41410256,6.15854701 L1.41410256,6.3474359 C0.886280289,6.35605639 0.422469122,6.69964192 0.260441304,7.20205375 C0.0984134868,7.70446559 0.274100215,8.25428918 0.697435897,8.56965812 L4.61965812,11.6529915 C4.6597803,11.6845653 4.67725601,11.7369924 4.66410256,11.7863248 L3.31410256,16.5696581 C3.17078536,17.0686683 3.35531947,17.603999 3.77568499,17.9087018 C4.19605051,18.2134046 4.76222533,18.2222268 5.19188034,17.9307692 L9.33632479,15.1529915 C9.37812335,15.1241312 9.43341511,15.1241312 9.47521368,15.1529915 L13.6196581,17.9307692 C14.0437303,18.2323486 14.6122526,18.2323486 15.0363248,17.9307692 C15.4569175,17.6288494 15.6416495,17.0946845 15.4974359,16.5974359 L14.1363248,11.7974359 C14.121549,11.7480662 14.1393268,11.6947329 14.1807692,11.6641026 L18.1196581,8.55299145 Z" id="Icon-Path"></path>
                </g>
                <rect id="ViewBox" x="0" y="0" width="20" height="20"></rect>
            </g>
        </g>
    </g>
</svg>
